<svg width="105" height="20" viewBox="0 0 105 20" fill="none" xmlns="http://www.w3.org/2000/svg">
<path d="M0 9.8C0 3.7 3.3 0 8.7 0C12.8 0 16.1 2.5 16.7 6.2C16.8 6.6 16.5 6.9 16.1 6.9H13.5C13.2 6.9 13 6.7 12.9 6.4C12.4 4.5 10.8 3.3 8.7 3.3C5.8 3.3 4 5.8 4 9.8C4 13.8 5.8 16.3 8.8 16.3C10.9 16.3 12.4 15.2 13 13.4C13.1 13.1 13.3 12.9 13.6 12.9H16.2C16.6 12.9 16.9 13.3 16.8 13.6C16.2 17.2 13 19.6 8.8 19.6C3.3 19.6 0 15.8 0 9.8Z" fill="#1E212C"/>
<path d="M24.2997 19.1003H21.3997C21.0997 19.1003 20.8997 18.9003 20.8997 18.6003V1.30026C20.8997 0.900257 21.2997 0.500257 21.6997 0.500257H28.6997C32.7997 0.500257 35.2997 2.80026 35.2997 6.40026C35.2997 8.50026 34.2997 10.4003 32.5997 11.4003C32.1997 11.6003 32.0997 12.1003 32.2997 12.4003L35.3997 18.3003C35.5997 18.6003 35.2997 19.0003 34.9997 19.0003H31.6997C31.4997 19.0003 31.2997 18.9003 31.1997 18.7003L28.2997 12.7003C28.1997 12.4003 27.8997 12.3003 27.5997 12.3003H25.2997C24.9997 12.3003 24.7997 12.5003 24.7997 12.8003V18.7003C24.8997 18.9003 24.5997 19.1003 24.2997 19.1003ZM24.8997 8.90026C24.8997 9.20026 25.0997 9.40026 25.3997 9.40026H28.3997C30.3997 9.40026 31.4997 8.30026 31.4997 6.50026C31.4997 4.70026 30.2997 3.60026 28.3997 3.60026H25.4997C25.1997 3.60026 24.9997 3.80026 24.9997 4.10026V8.90026H24.8997Z" fill="#1E212C"/>
<path d="M51.4998 19.1003H40.4998C40.0998 19.1003 39.7998 18.8003 39.7998 18.4003V1.20026C39.7998 0.800256 40.0998 0.500257 40.4998 0.500257H51.4998C51.8998 0.500257 52.1998 0.800256 52.1998 1.20026V3.10026C52.1998 3.50026 51.8998 3.80026 51.4998 3.80026H44.1998C43.8998 3.80026 43.6998 4.00026 43.6998 4.30026V7.70026C43.6998 8.00026 43.8998 8.20026 44.1998 8.20026H50.9998C51.3998 8.20026 51.6998 8.50026 51.6998 8.90026V10.6003C51.6998 11.0003 51.3998 11.3003 50.9998 11.3003H44.1998C43.8998 11.3003 43.6998 11.5003 43.6998 11.8003V15.6003C43.6998 15.9003 43.8998 16.1003 44.1998 16.1003H51.4998C51.8998 16.1003 52.1998 16.4003 52.1998 16.8003V18.7003C52.1998 18.8003 51.8998 19.1003 51.4998 19.1003Z" fill="#1E212C"/>
<path d="M66.9999 14.6003H61.2999C60.9999 14.6003 60.7999 14.8003 60.6999 15.0003L59.5999 18.7003C59.4999 19.0003 59.2999 19.1003 58.9999 19.1003H56.3999C55.9999 19.1003 55.6999 18.7003 55.7999 18.3003L61.7999 0.900257C61.8999 0.700257 62.0999 0.500257 62.3999 0.500257H66.0999C66.3999 0.500257 66.5999 0.700257 66.6999 0.900257L72.6999 18.3003C72.7999 18.7003 72.4999 19.1003 72.0999 19.1003H69.1999C68.8999 19.1003 68.6999 18.9003 68.5999 18.7003L67.4999 15.0003C67.4999 14.8003 67.1999 14.6003 66.9999 14.6003ZM62.0999 11.7003H66.1999C66.3999 11.7003 66.4999 11.5003 66.4999 11.3003L64.2999 4.30026H64.0999L61.8999 11.3003C61.7999 11.5003 61.8999 11.7003 62.0999 11.7003Z" fill="#1E212C"/>
<path d="M79.0001 18.4006V4.20065C79.0001 3.90065 78.8001 3.70065 78.5001 3.70065H74.1001C73.7001 3.70065 73.3001 3.40065 73.3001 2.90065V1.20065C73.3001 0.800646 73.6001 0.400646 74.1001 0.400646H87.7001C88.1001 0.400646 88.5001 0.700646 88.5001 1.20065V2.90065C88.5001 3.30065 88.2001 3.70065 87.7001 3.70065H83.3001C83.0001 3.70065 82.8001 3.90065 82.8001 4.20065V18.5006C82.8001 18.9006 82.5001 19.2006 82.1001 19.2006H79.6001C79.3001 19.1006 79.0001 18.8006 79.0001 18.4006Z" fill="#1E212C"/>
<path d="M103.8 19.1003H92.7999C92.3999 19.1003 92.0999 18.8003 92.0999 18.4003V1.20026C92.0999 0.800256 92.3999 0.500257 92.7999 0.500257H103.8C104.2 0.500257 104.5 0.800256 104.5 1.20026V3.10026C104.5 3.50026 104.2 3.80026 103.8 3.80026H96.4999C96.1999 3.80026 95.9999 4.00026 95.9999 4.30026V7.70026C95.9999 8.00026 96.1999 8.20026 96.4999 8.20026H103.3C103.7 8.20026 104 8.50026 104 8.90026V10.6003C104 11.0003 103.7 11.3003 103.3 11.3003H96.4999C96.1999 11.3003 95.9999 11.5003 95.9999 11.8003V15.6003C95.9999 15.9003 96.1999 16.1003 96.4999 16.1003H103.8C104.2 16.1003 104.5 16.4003 104.5 16.8003V18.7003C104.5 18.8003 104.2 19.1003 103.8 19.1003Z" fill="#1E212C"/>
</svg>
